# xmcd
#
# Track frame offsets:
#	150
#	12187
#	29052
#	45520
#	60745
#	74092
#	87812
#	110997
#	123412
#	141425
#	151885
#	176765
#	192617
#
# Disc length: 2834 seconds
#
# Revision: 0
# Processed by: cddbd v1.4PL0 Copyright (c) Steve Scherf et al.
# Submitted via: dBpowerAMP V4.0
#
DISCID=c40b100d
DTITLE=Isaac, Blewett and Cooper - Walk On
DYEAR=1997
DGENRE=Blues
TTITLE0=Apple Pie Blues
TTITLE1=Sweet Home Chicago
TTITLE2=Love in Vain
TTITLE3=Walk On
TTITLE4=Two Feet Up
TTITLE5=This Old Fool
TTITLE6=Born Under a Bad Sign
TTITLE7=Walking by Myself
TTITLE8=Walking Blues
TTITLE9=Django
TTITLE10=The River
TTITLE11=Riverside Blues
TTITLE12=Bring it on Home
EXTD=
EXTT0=
EXTT1=
EXTT2=
EXTT3=
EXTT4=
EXTT5=
EXTT6=
EXTT7=
EXTT8=
EXTT9=
EXTT10=
EXTT11=
EXTT12=
PLAYORDER=
